<?xml version="1.0" encoding="UTF-8"?>
<!DOCTYPE svg PUBLIC "-//W3C//DTD SVG 1.1//EN" "http://www.w3.org/Graphics/SVG/1.1/DTD/svg11.dtd">
<svg xmlns="http://www.w3.org/2000/svg" version="1.1" width="1280px" height="1152px" style="shape-rendering:geometricPrecision; text-rendering:geometricPrecision; image-rendering:optimizeQuality; fill-rule:evenodd; clip-rule:evenodd" xmlns:xlink="http://www.w3.org/1999/xlink">
<g><path style="opacity:1" fill="#611121" d="M 774.5,354.5 C 772.804,356.129 771.804,355.796 771.5,353.5C 770.734,349.837 769.9,346.171 769,342.5C 768.502,345.817 768.335,349.15 768.5,352.5C 761.818,356.675 754.484,359.008 746.5,359.5C 739.615,359.093 733.282,357.093 727.5,353.5C 718.457,344.047 714.124,332.714 714.5,319.5C 714.5,315.833 714.5,312.167 714.5,308.5C 716.293,299.246 720.46,291.246 727,284.5C 732.189,287.749 735.855,286.416 738,280.5C 738.667,276.167 738.667,271.833 738,267.5C 735.124,259.593 730.791,258.593 725,264.5C 721.071,259.735 718.071,254.402 716,248.5C 713.202,244.934 709.535,242.934 705,242.5C 698.097,244.468 691.263,246.635 684.5,249C 691.052,251.526 690.719,253.526 683.5,255C 679.167,255.667 674.833,255.667 670.5,255C 667.898,254.117 665.731,252.617 664,250.5C 663.721,254.17 663.888,257.837 664.5,261.5C 662.167,261.5 659.833,261.5 657.5,261.5C 657.918,260.778 658.584,260.278 659.5,260C 658.941,259.275 658.608,258.442 658.5,257.5C 659.636,255.682 660.303,253.682 660.5,251.5C 658.155,246.68 655.655,242.013 653,237.5C 649.908,226.224 653.074,217.39 662.5,211C 670.556,206.573 678.556,202.24 686.5,198C 672.908,198.391 664.574,192.057 661.5,179C 662.09,173.064 665.09,168.731 670.5,166C 674.104,164.094 677.77,162.427 681.5,161C 680.347,159.117 678.681,158.284 676.5,158.5C 676.22,155.612 677.553,154.112 680.5,154C 708.467,149.922 721.467,161.755 719.5,189.5C 716.847,191.724 713.847,193.391 710.5,194.5C 709.571,195.689 709.238,197.022 709.5,198.5C 722.101,200.633 732.434,206.633 740.5,216.5C 747.808,234.465 755.808,252.132 764.5,269.5C 773.933,296.926 777.266,325.26 774.5,354.5 Z"/></g>
<g><path style="opacity:0.004" fill="#000000" d="M 709.5,156.5 C 710.833,157.167 710.833,157.167 709.5,156.5 Z"/></g>
<g><path style="opacity:0.004" fill="#000000" d="M 677.5,160.5 C 678.833,161.167 678.833,161.167 677.5,160.5 Z"/></g>
<g><path style="opacity:0.004" fill="#000000" d="M 668.5,164.5 C 669.833,165.167 669.833,165.167 668.5,164.5 Z"/></g>
<g><path style="opacity:0.004" fill="#000000" d="M 652.5,241.5 C 653.833,242.167 653.833,242.167 652.5,241.5 Z"/></g>
<g><path style="opacity:1" fill="#f88670" d="M 714.5,308.5 C 708.504,314.614 701.17,317.614 692.5,317.5C 678.664,312.996 669.997,303.663 666.5,289.5C 670.697,289.261 674.697,288.261 678.5,286.5C 679.324,283.215 679.824,279.882 680,276.5C 681.699,275.594 683.533,275.261 685.5,275.5C 685.207,279.437 685.54,283.27 686.5,287C 694.167,290.333 701.833,290.333 709.5,287C 712.683,283.802 714.683,279.969 715.5,275.5C 718.54,274.32 721.206,272.653 723.5,270.5C 720.693,269.863 718.027,270.529 715.5,272.5C 714.571,269.475 713.238,266.642 711.5,264C 700.695,259.397 692.362,262.23 686.5,272.5C 684.235,273.647 681.902,273.814 679.5,273C 676.629,266.285 671.629,262.452 664.5,261.5C 663.888,257.837 663.721,254.17 664,250.5C 665.731,252.617 667.898,254.117 670.5,255C 674.833,255.667 679.167,255.667 683.5,255C 690.719,253.526 691.052,251.526 684.5,249C 691.263,246.635 698.097,244.468 705,242.5C 709.535,242.934 713.202,244.934 716,248.5C 718.071,254.402 721.071,259.735 725,264.5C 730.791,258.593 735.124,259.593 738,267.5C 738.667,271.833 738.667,276.167 738,280.5C 735.855,286.416 732.189,287.749 727,284.5C 720.46,291.246 716.293,299.246 714.5,308.5 Z"/></g>
<g><path style="opacity:0.004" fill="#000000" d="M 652.5,260.5 C 653.833,261.167 653.833,261.167 652.5,260.5 Z"/></g>
<g><path style="opacity:1" fill="#110912" d="M 657.5,261.5 C 659.833,261.5 662.167,261.5 664.5,261.5C 671.629,262.452 676.629,266.285 679.5,273C 681.902,273.814 684.235,273.647 686.5,272.5C 692.362,262.23 700.695,259.397 711.5,264C 713.238,266.642 714.571,269.475 715.5,272.5C 718.027,270.529 720.693,269.863 723.5,270.5C 721.206,272.653 718.54,274.32 715.5,275.5C 714.683,279.969 712.683,283.802 709.5,287C 701.833,290.333 694.167,290.333 686.5,287C 685.54,283.27 685.207,279.437 685.5,275.5C 683.533,275.261 681.699,275.594 680,276.5C 679.824,279.882 679.324,283.215 678.5,286.5C 674.697,288.261 670.697,289.261 666.5,289.5C 662.691,288.965 659.024,287.965 655.5,286.5C 654.5,286.167 653.833,285.5 653.5,284.5C 650.36,278.717 649.86,272.717 652,266.5C 653.73,264.598 655.563,262.931 657.5,261.5 Z M 656.5,266.5 C 657.497,266.47 658.164,266.97 658.5,268C 657.77,271.794 657.27,275.627 657,279.5C 653.856,275.34 653.689,271.006 656.5,266.5 Z"/></g>
<g><path style="opacity:1" fill="#601421" d="M 664.5,263.5 C 665.143,271.15 665.477,278.817 665.5,286.5C 654.535,284.579 650.702,278.246 654,267.5C 656.824,264.502 660.324,263.168 664.5,263.5 Z M 656.5,266.5 C 653.689,271.006 653.856,275.34 657,279.5C 657.27,275.627 657.77,271.794 658.5,268C 658.164,266.97 657.497,266.47 656.5,266.5 Z"/></g>
<g><path style="opacity:1" fill="#f7856f" d="M 664.5,263.5 C 674.983,266.801 678.983,273.801 676.5,284.5C 673.009,286.094 669.342,286.761 665.5,286.5C 665.477,278.817 665.143,271.15 664.5,263.5 Z"/></g>
<g><path style="opacity:1" fill="#f8866f" d="M 698.5,264.5 C 711.024,263.202 715.191,268.535 711,280.5C 708.151,285.427 703.817,287.76 698,287.5C 695.069,287.225 692.235,286.559 689.5,285.5C 686.24,275.697 689.24,268.697 698.5,264.5 Z"/></g>
<g><path style="opacity:0.267" fill="#5b2125" d="M 657.5,261.5 C 655.563,262.931 653.73,264.598 652,266.5C 649.86,272.717 650.36,278.717 653.5,284.5C 651.39,283.547 650.223,281.881 650,279.5C 649.09,274.336 649.59,269.336 651.5,264.5C 653.071,262.585 655.071,261.585 657.5,261.5 Z"/></g>
<g><path style="opacity:1" fill="#621222" d="M 655.5,286.5 C 659.024,287.965 662.691,288.965 666.5,289.5C 669.997,303.663 678.664,312.996 692.5,317.5C 692.5,321.833 692.5,326.167 692.5,330.5C 691.869,332.448 690.869,334.281 689.5,336C 684.725,339.721 679.391,342.388 673.5,344C 672.934,344.995 672.267,345.828 671.5,346.5C 671.53,345.503 671.03,344.836 670,344.5C 662.201,346.043 655.034,349.043 648.5,353.5C 647.583,352.873 646.583,352.539 645.5,352.5C 647.894,340.92 650.061,329.254 652,317.5C 653.251,307.161 654.418,296.827 655.5,286.5 Z"/></g>
<g><path style="opacity:1" fill="#fff8f7" d="M 692.5,296.5 C 693.675,296.281 694.675,296.614 695.5,297.5C 693.618,302.911 689.952,305.078 684.5,304C 682.365,303.241 681.032,301.741 680.5,299.5C 684.71,298.822 688.71,297.822 692.5,296.5 Z"/></g>
<g><path style="opacity:1" fill="#f74933" d="M 714.5,308.5 C 714.5,312.167 714.5,315.833 714.5,319.5C 710.988,322.17 707.322,324.67 703.5,327C 700.107,329.076 696.44,330.242 692.5,330.5C 692.5,326.167 692.5,321.833 692.5,317.5C 701.17,317.614 708.504,314.614 714.5,308.5 Z"/></g>
<g><path style="opacity:1" fill="#fb8771" d="M 714.5,319.5 C 714.124,332.714 718.457,344.047 727.5,353.5C 713.46,365.527 697.793,375.027 680.5,382C 670.553,384.551 665.886,380.718 666.5,370.5C 667.218,362.295 668.885,354.295 671.5,346.5C 672.267,345.828 672.934,344.995 673.5,344C 679.391,342.388 684.725,339.721 689.5,336C 690.869,334.281 691.869,332.448 692.5,330.5C 696.44,330.242 700.107,329.076 703.5,327C 707.322,324.67 710.988,322.17 714.5,319.5 Z"/></g>
<g><path style="opacity:1" fill="#f7836e" d="M 671.5,346.5 C 656.383,361.133 644.55,378.133 636,397.5C 634.53,401.378 633.697,405.378 633.5,409.5C 631.833,409.5 630.167,409.5 628.5,409.5C 628.66,407.801 628.494,406.134 628,404.5C 627.722,405.416 627.222,406.082 626.5,406.5C 628.767,396.682 630.267,386.682 631,376.5C 634.052,369.093 638.385,362.426 644,356.5C 644.791,355.255 645.291,353.922 645.5,352.5C 646.583,352.539 647.583,352.873 648.5,353.5C 655.034,349.043 662.201,346.043 670,344.5C 671.03,344.836 671.53,345.503 671.5,346.5 Z"/></g>
<g><path style="opacity:1" fill="#414ade" d="M 671.5,346.5 C 668.885,354.295 667.218,362.295 666.5,370.5C 665.886,380.718 670.553,384.551 680.5,382C 697.793,375.027 713.46,365.527 727.5,353.5C 733.282,357.093 739.615,359.093 746.5,359.5C 757.361,409.918 763.028,460.918 763.5,512.5C 749.167,512.5 734.833,512.5 720.5,512.5C 711.638,481.743 702.138,451.076 692,420.5C 688.587,416.044 684.087,413.544 678.5,413C 663.311,412.282 648.311,411.116 633.5,409.5C 633.697,405.378 634.53,401.378 636,397.5C 644.55,378.133 656.383,361.133 671.5,346.5 Z"/></g>
<g><path style="opacity:0.914" fill="#e0cdcf" d="M 771.5,353.5 C 770.391,353.443 769.391,353.11 768.5,352.5C 768.335,349.15 768.502,345.817 769,342.5C 769.9,346.171 770.734,349.837 771.5,353.5 Z"/></g>
<g><path style="opacity:1" fill="#fb8770" d="M 768.5,352.5 C 769.391,353.11 770.391,353.443 771.5,353.5C 771.804,355.796 772.804,356.129 774.5,354.5C 778.306,356.237 781.973,358.237 785.5,360.5C 787.359,364.896 789.526,369.229 792,373.5C 793.869,378.318 794.869,383.318 795,388.5C 796.533,429.042 794.366,469.375 788.5,509.5C 767.293,518.101 747.293,528.767 728.5,541.5C 725.989,531.789 723.322,522.123 720.5,512.5C 734.833,512.5 749.167,512.5 763.5,512.5C 763.028,460.918 757.361,409.918 746.5,359.5C 754.484,359.008 761.818,356.675 768.5,352.5 Z"/></g>
<g><path style="opacity:0.004" fill="#fe0000" d="M 640.5,356.5 C 641.833,357.167 641.833,357.167 640.5,356.5 Z"/></g>
<g><path style="opacity:1" fill="#fbdc2b" d="M 1014.5,721.5 C 1005.65,728.978 995.314,732.978 983.5,733.5C 981.217,732.971 978.883,732.637 976.5,732.5C 951.192,734.402 925.859,735.902 900.5,737C 760.611,761.035 620.278,763.869 479.5,745.5C 473.042,721.124 465.375,697.124 456.5,673.5C 515.118,679.795 573.784,680.128 632.5,674.5C 628.457,693.367 627.624,712.367 630,731.5C 637.684,745.427 649.517,751.593 665.5,750C 666.833,748.667 666.833,747.333 665.5,746C 656.207,746.261 647.874,743.595 640.5,738C 638.044,735.592 636.211,732.759 635,729.5C 631.295,684.364 642.629,643.364 669,606.5C 712.025,550.709 768.192,515.209 837.5,500C 849.075,497.46 860.742,495.46 872.5,494C 906.798,491.237 941.131,489.571 975.5,489C 980.901,489.689 986.068,491.189 991,493.5C 993.502,492.499 994.002,490.833 992.5,488.5C 987.65,486.494 982.65,484.994 977.5,484C 944.46,484.037 911.46,485.37 878.5,488C 847.506,491.164 817.506,498.331 788.5,509.5C 794.366,469.375 796.533,429.042 795,388.5C 794.869,383.318 793.869,378.318 792,373.5C 789.526,369.229 787.359,364.896 785.5,360.5C 790.032,360.931 794.365,360.431 798.5,359C 835.167,358.333 871.833,358.333 908.5,359C 961.439,366.465 994.605,395.965 1008,447.5C 1009.18,467.477 1009.85,487.477 1010,507.5C 1012.81,510.951 1014.98,514.784 1016.5,519C 1017.67,530.274 1018.83,541.441 1020,552.5C 1021.57,597.257 1023.74,641.924 1026.5,686.5C 1026.65,693.259 1025.98,699.926 1024.5,706.5C 1021.39,711.729 1018.06,716.729 1014.5,721.5 Z"/></g>
<g><path style="opacity:0.004" fill="#feff00" d="M 969.5,381.5 C 970.833,382.167 970.833,382.167 969.5,381.5 Z"/></g>
<g><path style="opacity:0.004" fill="#feff00" d="M 985.5,397.5 C 986.833,398.167 986.833,398.167 985.5,397.5 Z"/></g>
<g><path style="opacity:1" fill="#dfdfde" d="M 484.5,399.5 C 484.389,400.117 484.056,400.617 483.5,401C 487.5,401.333 491.5,401.667 495.5,402C 492.854,402.497 490.187,402.664 487.5,402.5C 503.504,455.511 519.504,508.511 535.5,561.5C 537.415,561.216 539.081,561.549 540.5,562.5C 531.841,561.963 523.174,561.463 514.5,561C 509.82,559.321 505.987,556.488 503,552.5C 501.485,548.39 499.985,544.39 498.5,540.5C 492.96,519.012 486.794,497.679 480,476.5C 479.329,475.748 478.496,475.414 477.5,475.5C 477.611,474.883 477.944,474.383 478.5,474C 472.437,453.919 466.604,433.752 461,413.5C 459.718,408.326 460.551,403.66 463.5,399.5C 470.512,398.279 477.512,398.279 484.5,399.5 Z"/></g>
<g><path style="opacity:1" fill="#e9e9e9" d="M 484.5,399.5 C 510.162,401.125 535.829,402.791 561.5,404.5C 560.737,405.268 559.737,405.768 558.5,406C 575.274,459.487 591.94,512.987 608.5,566.5C 585.825,565.284 563.159,563.951 540.5,562.5C 539.081,561.549 537.415,561.216 535.5,561.5C 519.504,508.511 503.504,455.511 487.5,402.5C 490.187,402.664 492.854,402.497 495.5,402C 491.5,401.667 487.5,401.333 483.5,401C 484.056,400.617 484.389,400.117 484.5,399.5 Z"/></g>
<g><path style="opacity:0.999" fill="#e0e0e0" d="M 561.5,404.5 C 580.48,405.255 599.313,406.588 618,408.5C 621.252,408.481 624.085,407.814 626.5,406.5C 627.222,406.082 627.722,405.416 628,404.5C 628.494,406.134 628.66,407.801 628.5,409.5C 630.167,409.5 631.833,409.5 633.5,409.5C 648.311,411.116 663.311,412.282 678.5,413C 684.087,413.544 688.587,416.044 692,420.5C 702.138,451.076 711.638,481.743 720.5,512.5C 723.322,522.123 725.989,531.789 728.5,541.5C 715.587,550.742 703.254,560.742 691.5,571.5C 663.772,570.418 636.105,568.751 608.5,566.5C 591.94,512.987 575.274,459.487 558.5,406C 559.737,405.768 560.737,405.268 561.5,404.5 Z"/></g>
<g><path style="opacity:0.004" fill="#feff00" d="M 993.5,408.5 C 994.833,409.167 994.833,409.167 993.5,408.5 Z"/></g>
<g><path style="opacity:1" fill="#f9bf09" d="M 477.5,475.5 C 478.496,475.414 479.329,475.748 480,476.5C 486.794,497.679 492.96,519.012 498.5,540.5C 476.819,542.456 455.152,544.623 433.5,547C 419.502,548.065 409.669,554.898 404,567.5C 396.429,594.035 388.595,620.369 380.5,646.5C 376.308,644.238 371.974,642.238 367.5,640.5C 364.49,641.194 363.823,642.861 365.5,645.5C 359.196,654.657 353.03,663.991 347,673.5C 346.722,672.584 346.222,671.918 345.5,671.5C 344.575,630.53 355.742,593.197 379,559.5C 387.364,548.977 395.864,538.644 404.5,528.5C 406.167,527.5 407.5,526.167 408.5,524.5C 410.167,523.5 411.5,522.167 412.5,520.5C 432.108,503.065 453.275,487.732 476,474.5C 476.383,475.056 476.883,475.389 477.5,475.5 Z"/></g>
<g><path style="opacity:1" fill="#fefdf8" d="M 456.5,673.5 C 455.637,671.579 454.971,669.579 454.5,667.5C 513.112,675.111 571.778,675.444 630.5,668.5C 631.554,668.68 632.554,669.013 633.5,669.5C 635.977,662.067 638.643,654.734 641.5,647.5C 643.62,641.26 646.287,635.26 649.5,629.5C 649.5,629.167 649.5,628.833 649.5,628.5C 661.153,607.836 675.153,588.836 691.5,571.5C 703.254,560.742 715.587,550.742 728.5,541.5C 747.293,528.767 767.293,518.101 788.5,509.5C 817.506,498.331 847.506,491.164 878.5,488C 911.46,485.37 944.46,484.037 977.5,484C 982.65,484.994 987.65,486.494 992.5,488.5C 994.002,490.833 993.502,492.499 991,493.5C 986.068,491.189 980.901,489.689 975.5,489C 941.131,489.571 906.798,491.237 872.5,494C 860.742,495.46 849.075,497.46 837.5,500C 768.192,515.209 712.025,550.709 669,606.5C 642.629,643.364 631.295,684.364 635,729.5C 636.211,732.759 638.044,735.592 640.5,738C 647.874,743.595 656.207,746.261 665.5,746C 666.833,747.333 666.833,748.667 665.5,750C 649.517,751.593 637.684,745.427 630,731.5C 627.624,712.367 628.457,693.367 632.5,674.5C 573.784,680.128 515.118,679.795 456.5,673.5 Z"/></g>
<g><path style="opacity:0.004" fill="#feff00" d="M 449.5,488.5 C 450.833,489.167 450.833,489.167 449.5,488.5 Z"/></g>
<g><path style="opacity:0.004" fill="#feff00" d="M 436.5,497.5 C 437.833,498.167 437.833,498.167 436.5,497.5 Z"/></g>
<g><path style="opacity:0.004" fill="#feff00" d="M 432.5,500.5 C 433.833,501.167 433.833,501.167 432.5,500.5 Z"/></g>
<g><path style="opacity:0.004" fill="#feff00" d="M 424.5,507.5 C 425.833,508.167 425.833,508.167 424.5,507.5 Z"/></g>
<g><path style="opacity:0.004" fill="#feff00" d="M 413.5,516.5 C 414.833,517.167 414.833,517.167 413.5,516.5 Z"/></g>
<g><path style="opacity:0.004" fill="#feff00" d="M 413.5,517.5 C 412.833,518.167 412.833,518.167 413.5,517.5 Z"/></g>
<g><path style="opacity:0.004" fill="#feff00" d="M 412.5,520.5 C 411.833,519.167 411.833,519.167 412.5,520.5 Z"/></g>
<g><path style="opacity:0.004" fill="#feff00" d="M 409.5,520.5 C 410.833,521.167 410.833,521.167 409.5,520.5 Z"/></g>
<g><path style="opacity:0.004" fill="#feff00" d="M 409.5,521.5 C 408.833,522.167 408.833,522.167 409.5,521.5 Z"/></g>
<g><path style="opacity:0.004" fill="#feff00" d="M 408.5,524.5 C 407.833,523.167 407.833,523.167 408.5,524.5 Z"/></g>
<g><path style="opacity:0.004" fill="#feff00" d="M 405.5,524.5 C 406.833,525.167 406.833,525.167 405.5,524.5 Z"/></g>
<g><path style="opacity:0.004" fill="#feff00" d="M 405.5,525.5 C 404.833,526.167 404.833,526.167 405.5,525.5 Z"/></g>
<g><path style="opacity:0.004" fill="#feff00" d="M 404.5,528.5 C 403.833,527.167 403.833,527.167 404.5,528.5 Z"/></g>
<g><path style="opacity:0.004" fill="#feff00" d="M 401.5,528.5 C 402.833,529.167 402.833,529.167 401.5,528.5 Z"/></g>
<g><path style="opacity:0.004" fill="#feff00" d="M 401.5,529.5 C 400.833,530.167 400.833,530.167 401.5,529.5 Z"/></g>
<g><path style="opacity:0.004" fill="#feff00" d="M 397.5,532.5 C 398.833,533.167 398.833,533.167 397.5,532.5 Z"/></g>
<g><path style="opacity:1" fill="#95b6fb" d="M 498.5,540.5 C 499.985,544.39 501.485,548.39 503,552.5C 505.987,556.488 509.82,559.321 514.5,561C 523.174,561.463 531.841,561.963 540.5,562.5C 563.159,563.951 585.825,565.284 608.5,566.5C 636.105,568.751 663.772,570.418 691.5,571.5C 675.153,588.836 661.153,607.836 649.5,628.5C 583.965,615.38 518.132,603.047 452,591.5C 450.833,591.833 449.667,592.167 448.5,592.5C 448.624,593.107 448.957,593.44 449.5,593.5C 448.677,596.461 448.01,599.461 447.5,602.5C 435.359,605.715 423.692,610.215 412.5,616C 406.566,619.933 402.066,625.1 399,631.5C 398.213,639.881 398.546,648.214 400,656.5C 403.508,674.359 407.841,692.026 413,709.5C 414.156,710.993 414.99,710.826 415.5,709C 409.647,688.402 404.814,667.569 401,646.5C 398.614,633.629 403.114,624.129 414.5,618C 425.775,612.644 437.108,607.81 448.5,603.5C 455.123,601.739 461.457,599.406 467.5,596.5C 528.049,608.009 588.716,619.009 649.5,629.5C 646.287,635.26 643.62,641.26 641.5,647.5C 577.492,649.264 513.492,651.264 449.5,653.5C 450.646,658.438 452.313,663.105 454.5,667.5C 454.971,669.579 455.637,671.579 456.5,673.5C 465.375,697.124 473.042,721.124 479.5,745.5C 480.505,750.522 481.672,755.522 483,760.5C 483.995,761.066 484.828,761.733 485.5,762.5C 488.353,780.951 491.853,799.284 496,817.5C 497.809,833.951 499.643,850.285 501.5,866.5C 489.601,868.059 477.935,871.059 466.5,875.5C 465.105,867.368 463.105,859.368 460.5,851.5C 452.423,827.435 444.256,803.435 436,779.5C 435.392,777.934 434.558,776.6 433.5,775.5C 430.855,762.229 427.188,749.229 422.5,736.5C 420.141,728.395 417.474,720.395 414.5,712.5C 411.302,719.432 408.302,726.432 405.5,733.5C 403.107,738.348 401.107,743.348 399.5,748.5C 401.781,748.077 403.448,748.744 404.5,750.5C 402.396,750.201 400.396,750.534 398.5,751.5C 390.689,767.302 383.356,783.302 376.5,799.5C 375.466,798.313 374.133,797.48 372.5,797C 362.107,795.021 351.773,792.855 341.5,790.5C 347.207,769.976 352.541,749.31 357.5,728.5C 360.126,726.236 361.459,723.236 361.5,719.5C 367.187,696.754 373.187,674.087 379.5,651.5C 380.038,649.883 380.371,648.216 380.5,646.5C 388.595,620.369 396.429,594.035 404,567.5C 409.669,554.898 419.502,548.065 433.5,547C 455.152,544.623 476.819,542.456 498.5,540.5 Z"/></g>
<g><path style="opacity:0.004" fill="#feff00" d="M 388.5,543.5 C 389.833,544.167 389.833,544.167 388.5,543.5 Z"/></g>
<g><path style="opacity:0.004" fill="#feff00" d="M 384.5,548.5 C 385.833,549.167 385.833,549.167 384.5,548.5 Z"/></g>
<g><path style="opacity:0.004" fill="#feff00" d="M 380.5,553.5 C 381.833,554.167 381.833,554.167 380.5,553.5 Z"/></g>
<g><path style="opacity:0.004" fill="#feff00" d="M 368.5,572.5 C 369.833,573.167 369.833,573.167 368.5,572.5 Z"/></g>
<g><path style="opacity:1" fill="#f1bc23" d="M 449.5,593.5 C 455.461,594.716 461.461,595.716 467.5,596.5C 461.457,599.406 455.123,601.739 448.5,603.5C 448.5,602.833 448.167,602.5 447.5,602.5C 448.01,599.461 448.677,596.461 449.5,593.5 Z"/></g>
<g><path style="opacity:1" fill="#4751e0" d="M 649.5,628.5 C 649.5,628.833 649.5,629.167 649.5,629.5C 588.716,619.009 528.049,608.009 467.5,596.5C 461.461,595.716 455.461,594.716 449.5,593.5C 448.957,593.44 448.624,593.107 448.5,592.5C 449.667,592.167 450.833,591.833 452,591.5C 518.132,603.047 583.965,615.38 649.5,628.5 Z"/></g>
<g><path style="opacity:1" fill="#4651e1" d="M 447.5,602.5 C 448.167,602.5 448.5,602.833 448.5,603.5C 437.108,607.81 425.775,612.644 414.5,618C 403.114,624.129 398.614,633.629 401,646.5C 404.814,667.569 409.647,688.402 415.5,709C 414.99,710.826 414.156,710.993 413,709.5C 407.841,692.026 403.508,674.359 400,656.5C 398.546,648.214 398.213,639.881 399,631.5C 402.066,625.1 406.566,619.933 412.5,616C 423.692,610.215 435.359,605.715 447.5,602.5 Z"/></g>
<g><path style="opacity:1" fill="#fbdc2b" d="M 365.5,645.5 C 370.171,647.503 374.838,649.503 379.5,651.5C 373.187,674.087 367.187,696.754 361.5,719.5C 360.391,719.443 359.391,719.11 358.5,718.5C 355.498,716.824 353.165,714.49 351.5,711.5C 350.283,708.343 348.783,705.343 347,702.5C 345.63,692.223 345.13,681.889 345.5,671.5C 346.222,671.918 346.722,672.584 347,673.5C 353.03,663.991 359.196,654.657 365.5,645.5 Z"/></g>
<g><path style="opacity:0.994" fill="#fefcf1" d="M 380.5,646.5 C 380.371,648.216 380.038,649.883 379.5,651.5C 374.838,649.503 370.171,647.503 365.5,645.5C 363.823,642.861 364.49,641.194 367.5,640.5C 371.974,642.238 376.308,644.238 380.5,646.5 Z"/></g>
<g><path style="opacity:1" fill="#fbdc2e" d="M 641.5,647.5 C 638.643,654.734 635.977,662.067 633.5,669.5C 632.554,669.013 631.554,668.68 630.5,668.5C 571.778,675.444 513.112,675.111 454.5,667.5C 452.313,663.105 450.646,658.438 449.5,653.5C 513.492,651.264 577.492,649.264 641.5,647.5 Z"/></g>
<g><path style="opacity:0.004" fill="#feff00" d="M 348.5,709.5 C 349.833,710.167 349.833,710.167 348.5,709.5 Z"/></g>
<g><path style="opacity:0.004" fill="#feff00" d="M 351.5,713.5 C 352.833,714.167 352.833,714.167 351.5,713.5 Z"/></g>
<g><path style="opacity:1" fill="#f8d932" d="M 422.5,736.5 C 416.933,735.121 411.266,734.121 405.5,733.5C 408.302,726.432 411.302,719.432 414.5,712.5C 417.474,720.395 420.141,728.395 422.5,736.5 Z"/></g>
<g><path style="opacity:0.004" fill="#feff00" d="M 1021.5,713.5 C 1022.83,714.167 1022.83,714.167 1021.5,713.5 Z"/></g>
<g><path style="opacity:0.004" fill="#feff00" d="M 1017.5,718.5 C 1018.83,719.167 1018.83,719.167 1017.5,718.5 Z"/></g>
<g><path style="opacity:0.004" fill="#feff00" d="M 1014.5,721.5 C 1015.83,722.167 1015.83,722.167 1014.5,721.5 Z"/></g>
<g><path style="opacity:0.004" fill="#feff00" d="M 1014.5,722.5 C 1013.83,723.167 1013.83,723.167 1014.5,722.5 Z"/></g>
<g><path style="opacity:0.031" fill="#bcc3a1" d="M 358.5,718.5 C 359.391,719.11 360.391,719.443 361.5,719.5C 361.459,723.236 360.126,726.236 357.5,728.5C 358.669,725.076 359.002,721.743 358.5,718.5 Z"/></g>
<g><path style="opacity:1" fill="#601121" d="M 405.5,733.5 C 411.266,734.121 416.933,735.121 422.5,736.5C 427.188,749.229 430.855,762.229 433.5,775.5C 425.381,828.167 417.214,880.834 409,933.5C 401.854,944.396 393.854,945.062 385,935.5C 384.305,933.278 383.472,931.111 382.5,929C 392.369,870.538 401.702,812.038 410.5,753.5C 410.392,752.558 410.059,751.725 409.5,751C 407.866,750.506 406.199,750.34 404.5,750.5C 403.448,748.744 401.781,748.077 399.5,748.5C 401.107,743.348 403.107,738.348 405.5,733.5 Z"/></g>
<g><path style="opacity:1" fill="#611020" d="M 983.5,733.5 C 992.559,796.075 1002.23,858.575 1012.5,921C 1009.86,932.657 1002.86,936.49 991.5,932.5C 989.804,930.475 988.137,928.475 986.5,926.5C 977.62,867.659 968.286,808.992 958.5,750.5C 863.287,762.825 767.954,775.158 672.5,787.5C 672.833,854.837 672.5,922.17 671.5,989.5C 667.759,997.067 661.759,999.567 653.5,997C 652.264,995.915 650.931,995.082 649.5,994.5C 649.092,993.357 648.425,992.357 647.5,991.5C 646.5,923.17 646.167,854.837 646.5,786.5C 634.326,785.409 622.326,783.742 610.5,781.5C 607.818,815.871 604.651,850.204 601,884.5C 598.343,892.416 592.843,895.583 584.5,894C 578.08,891.574 574.746,886.908 574.5,880C 578.8,845.9 582.467,811.733 585.5,777.5C 552.141,772.645 518.807,767.645 485.5,762.5C 484.828,761.733 483.995,761.066 483,760.5C 481.672,755.522 480.505,750.522 479.5,745.5C 620.278,763.869 760.611,761.035 900.5,737C 925.859,735.902 951.192,734.402 976.5,732.5C 978.883,732.637 981.217,732.971 983.5,733.5 Z"/></g>
<g><path style="opacity:0.004" fill="#fefffe" d="M 385.5,781.5 C 386.833,782.167 386.833,782.167 385.5,781.5 Z"/></g>
<g><path style="opacity:1" fill="#fa8670" d="M 341.5,790.5 C 351.773,792.855 362.107,795.021 372.5,797C 374.133,797.48 375.466,798.313 376.5,799.5C 367.035,816.263 357.702,833.096 348.5,850C 349.476,857.991 350.809,865.824 352.5,873.5C 352.5,874.167 352.5,874.833 352.5,875.5C 340.201,877.939 327.868,880.272 315.5,882.5C 311.84,872.511 308.173,862.511 304.5,852.5C 308.913,851.633 312.247,849.3 314.5,845.5C 317.688,842.97 320.855,840.304 324,837.5C 329.998,821.798 335.832,806.131 341.5,790.5 Z"/></g>
<g><path style="opacity:1" fill="#90adf6" d="M 290.5,848.5 C 281.686,851.098 272.686,853.764 263.5,856.5C 262.336,849.207 265.336,844.04 272.5,841C 279.119,839.591 284.119,841.757 287.5,847.5C 288.325,848.386 289.325,848.719 290.5,848.5 Z"/></g>
<g><path style="opacity:1" fill="#4049de" d="M 290.5,848.5 C 295.453,848.123 300.119,848.789 304.5,850.5C 304.5,851.167 304.5,851.833 304.5,852.5C 308.173,862.511 311.84,872.511 315.5,882.5C 327.868,880.272 340.201,877.939 352.5,875.5C 353.833,877.167 355.167,878.833 356.5,880.5C 355.203,883.797 352.87,886.13 349.5,887.5C 330.014,891.9 310.181,894.234 290,894.5C 279.915,895.404 270.415,893.571 261.5,889C 253.74,883.389 250.907,875.889 253,866.5C 256.396,862.935 259.896,859.602 263.5,856.5C 272.686,853.764 281.686,851.098 290.5,848.5 Z"/></g>
<g><path style="opacity:0.063" fill="#a972a5" d="M 314.5,845.5 C 312.247,849.3 308.913,851.633 304.5,852.5C 304.5,851.833 304.5,851.167 304.5,850.5C 308.315,849.658 311.648,847.991 314.5,845.5 Z"/></g>
<g><path style="opacity:0.004" fill="#0000ff" d="M 260.5,856.5 C 261.833,857.167 261.833,857.167 260.5,856.5 Z"/></g>
<g><path style="opacity:0.004" fill="#0000ff" d="M 252.5,863.5 C 253.833,864.167 253.833,864.167 252.5,863.5 Z"/></g>
<g><path style="opacity:1" fill="#fa8670" d="M 501.5,866.5 C 503.947,883.664 505.114,900.997 505,918.5C 510.61,926.984 515.276,935.984 519,945.5C 521.879,948.238 523.712,951.571 524.5,955.5C 523.052,953.49 521.719,951.323 520.5,949C 519.5,948.333 518.5,948.333 517.5,949C 507.363,955.638 497.363,962.471 487.5,969.5C 480.542,962.041 473.375,954.708 466,947.5C 465.805,946.181 465.972,944.847 466.5,943.5C 470.754,937.325 474.754,930.992 478.5,924.5C 475.564,907.76 471.564,891.427 466.5,875.5C 477.935,871.059 489.601,868.059 501.5,866.5 Z"/></g>
<g><path style="opacity:0.024" fill="#9a5ca4" d="M 352.5,873.5 C 353.833,873.5 355.167,873.5 356.5,873.5C 356.5,875.833 356.5,878.167 356.5,880.5C 355.167,878.833 353.833,877.167 352.5,875.5C 352.5,874.833 352.5,874.167 352.5,873.5 Z"/></g>
<g><path style="opacity:0.004" fill="#0000ff" d="M 252.5,881.5 C 253.833,882.167 253.833,882.167 252.5,881.5 Z"/></g>
<g><path style="opacity:0.004" fill="#feff00" d="M 813.5,892.5 C 814.833,893.167 814.833,893.167 813.5,892.5 Z"/></g>
<g><path style="opacity:1" fill="#fca837" d="M 772.5,888.5 C 789.439,887.444 805.439,890.61 820.5,898C 823.751,901.232 824.918,905.066 824,909.5C 823.308,910.025 822.808,910.692 822.5,911.5C 843.945,915.615 850.945,927.948 843.5,948.5C 837.051,956.322 828.717,960.322 818.5,960.5C 818.16,966.932 817.327,973.265 816,979.5C 791.74,988.748 767.406,988.748 743,979.5C 739.835,954.949 737.002,930.282 734.5,905.5C 735.748,900.988 738.415,897.655 742.5,895.5C 747.251,894.082 751.918,892.582 756.5,891C 761.988,890.226 767.321,889.393 772.5,888.5 Z M 821.5,925.5 C 830.584,925.084 834.751,929.418 834,938.5C 831.386,945.157 826.553,947.657 819.5,946C 820.789,939.273 821.456,932.44 821.5,925.5 Z"/></g>
<g><path style="opacity:1" fill="#fd730e" d="M 767.5,893.5 C 782.831,892.74 797.831,894.574 812.5,899C 813.357,899.689 814.023,900.522 814.5,901.5C 813.088,902.806 811.421,903.64 809.5,904C 791.217,906.891 772.883,907.224 754.5,905C 750.647,904.83 747.314,903.496 744.5,901C 745.167,900.333 745.833,899.667 746.5,899C 753.562,896.945 760.562,895.111 767.5,893.5 Z"/></g>
<g><path style="opacity:0.004" fill="#feff00" d="M 821.5,896.5 C 822.833,897.167 822.833,897.167 821.5,896.5 Z"/></g>
<g><path style="opacity:0.004" fill="#000000" d="M 1005.5,933.5 C 1006.83,934.167 1006.83,934.167 1005.5,933.5 Z"/></g>
<g><path style="opacity:0.004" fill="#fe00ff" d="M 468.5,936.5 C 469.833,937.167 469.833,937.167 468.5,936.5 Z"/></g>
<g><path style="opacity:0.004" fill="#000000" d="M 385.5,938.5 C 384.833,937.167 384.833,937.167 385.5,938.5 Z"/></g>
<g><path style="opacity:0.004" fill="#000000" d="M 385.5,938.5 C 386.833,939.167 386.833,939.167 385.5,938.5 Z"/></g>
<g><path style="opacity:1" fill="#90acf4" d="M 452.5,945.5 C 454.246,949.165 455.579,952.998 456.5,957C 454.493,966.342 448.826,970.009 439.5,968C 437.359,966.692 435.359,965.192 433.5,963.5C 432.148,964.524 430.815,965.524 429.5,966.5C 430.99,961.279 432.156,955.946 433,950.5C 433.583,948.998 434.416,947.665 435.5,946.5C 438.441,945.39 441.274,944.057 444,942.5C 446.621,944.032 449.454,945.032 452.5,945.5 Z"/></g>
<g><path style="opacity:1" fill="#4148dc" d="M 466.5,943.5 C 465.972,944.847 465.805,946.181 466,947.5C 473.375,954.708 480.542,962.041 487.5,969.5C 497.363,962.471 507.363,955.638 517.5,949C 518.5,948.333 519.5,948.333 520.5,949C 521.719,951.323 523.052,953.49 524.5,955.5C 523.131,957.068 522.131,958.901 521.5,961C 502.928,972.788 483.595,983.288 463.5,992.5C 457.622,994.442 451.622,995.776 445.5,996.5C 433.476,996.449 425.809,990.782 422.5,979.5C 423.904,974.585 426.237,970.251 429.5,966.5C 430.815,965.524 432.148,964.524 433.5,963.5C 435.359,965.192 437.359,966.692 439.5,968C 448.826,970.009 454.493,966.342 456.5,957C 455.579,952.998 454.246,949.165 452.5,945.5C 456.503,945.584 460.169,944.584 463.5,942.5C 464.417,943.127 465.417,943.461 466.5,943.5 Z"/></g>
<g><path style="opacity:0.004" fill="#feff00" d="M 841.5,952.5 C 842.833,953.167 842.833,953.167 841.5,952.5 Z"/></g>
<g><path style="opacity:0.004" fill="#feff00" d="M 841.5,953.5 C 840.833,954.167 840.833,954.167 841.5,953.5 Z"/></g>
<g><path style="opacity:0.004" fill="#0000ff" d="M 517.5,964.5 C 518.833,965.167 518.833,965.167 517.5,964.5 Z"/></g>
<g><path style="opacity:0.004" fill="#0000ff" d="M 509.5,969.5 C 510.833,970.167 510.833,970.167 509.5,969.5 Z"/></g>
<g><path style="opacity:0.004" fill="#0000ff" d="M 488.5,981.5 C 489.833,982.167 489.833,982.167 488.5,981.5 Z"/></g>
<g><path style="opacity:0.004" fill="#feff00" d="M 744.5,981.5 C 745.833,982.167 745.833,982.167 744.5,981.5 Z"/></g>
<g><path style="opacity:0.004" fill="#0000ff" d="M 429.5,993.5 C 430.833,994.167 430.833,994.167 429.5,993.5 Z"/></g>
<g><path style="opacity:0.004" fill="#000000" d="M 649.5,994.5 C 648.833,995.167 648.833,995.167 649.5,994.5 Z"/></g>
<g><path style="opacity:0.004" fill="#000000" d="M 665.5,997.5 C 666.833,998.167 666.833,998.167 665.5,997.5 Z"/></g>
</svg>
